<svg width="24" height="24" viewBox="0 0 24 24" fill="none" xmlns="http://www.w3.org/2000/svg">
<path fill-rule="evenodd" clip-rule="evenodd" d="M13.0002 11.0004L13.0002 3.51496C13.0002 2.96201 12.5533 2.51511 12.0003 2.51511C11.4474 2.51511 11.0005 2.96201 11.0005 3.51496L11.0005 11.0004L3.51503 11.0004C2.96207 11.0004 2.51518 11.4473 2.51518 12.0002C2.51518 12.5532 2.96207 13.0001 3.51503 13.0001L11.0005 13.0001L11.0005 20.4855C11.0005 21.0385 11.4474 21.4854 12.0003 21.4854C12.2761 21.4854 12.5264 21.3737 12.7074 21.1926C12.8884 21.0116 13.0002 20.7613 13.0002 20.4855L13.0002 13.0001L20.4856 13.0001C20.7614 13.0001 21.0117 12.8884 21.1927 12.7074C21.3737 12.5263 21.4854 12.276 21.4854 12.0002C21.4854 11.4473 21.0386 11.0004 20.4856 11.0004L13.0002 11.0004Z" fill="#54556C"/>
</svg>
