<?xml version="1.0" encoding="utf-8"?>
<!-- Generator: Adobe Illustrator 24.3.0, SVG Export Plug-In . SVG Version: 6.00 Build 0)  -->
<svg version="1.1" xmlns="http://www.w3.org/2000/svg" xmlns:xlink="http://www.w3.org/1999/xlink" x="0px" y="0px"
	 viewBox="0 0 18 19" style="enable-background:new 0 0 18 19;" xml:space="preserve">
<style type="text/css">
	.st0{fill:none;stroke:#3378FF;stroke-linecap:round;stroke-linejoin:round;}
	.st1{opacity:0.4;fill:none;stroke:#3378FF;stroke-width:2;stroke-linecap:round;stroke-linejoin:round;enable-background:new    ;}
	.st2{display:none;}
	
		.st3{display:inline;opacity:0.4;fill:none;stroke:#FF33C6;stroke-width:2;stroke-linecap:round;stroke-linejoin:round;enable-background:new    ;}
	.st4{display:inline;fill:none;stroke:#FF33C6;stroke-linecap:round;stroke-linejoin:round;}
</style>
<g id="Layer_1">
	<path class="st0" d="M12.3,9.5H1.2"/>
	<path class="st0" d="M9.6,12.2l2.7-2.7L9.6,6.8"/>
	<path class="st1" d="M6.5,5.2V4.4C6.5,2.5,7.9,1,9.6,1h4.1c1.7,0,3.1,1.5,3.1,3.4l0,10.3c0,1.9-1.4,3.4-3.1,3.4H9.6
		c-1.7,0-3.1-1.5-3.1-3.4v-0.9"/>
</g>
<g id="Layer_2" class="st2">
	<path class="st3" d="M5.5,13.8v0.9c0,1.9,1.5,3.4,3.4,3.4h4.5c1.9,0,3.4-1.5,3.4-3.4V4.3c0-1.9-1.5-3.4-3.4-3.4H8.9
		C7,0.9,5.5,2.4,5.5,4.3v0.9"/>
	<path class="st4" d="M1.1,9.5h11.2"/>
	<path class="st4" d="M3.8,6.8L1.1,9.5l2.7,2.7"/>
</g>
</svg>
