<svg width="52" height="52" viewBox="0 0 52 52" fill="none" xmlns="http://www.w3.org/2000/svg">
<path fill-rule="evenodd" clip-rule="evenodd" d="M38.2152 15.4047V15.4047C37.407 15.4047 36.6747 14.9389 36.3302 14.2109C35.7084 12.8935 34.9175 11.21 34.4495 10.2935C33.7584 8.9307 32.6382 8.1377 31.0869 8.12687C31.0609 8.1247 20.9382 8.1247 20.9122 8.12687C19.3609 8.1377 18.2429 8.9307 17.5496 10.2935C17.0837 11.21 16.2929 12.8935 15.6711 14.2109C15.3266 14.9389 14.5921 15.4047 13.7861 15.4047V15.4047C9.46139 15.4047 5.95789 18.9082 5.95789 23.2307V36.092C5.95789 40.4124 9.46139 43.918 13.7861 43.918H38.2152C42.5377 43.918 46.0412 40.4124 46.0412 36.092V23.2307C46.0412 18.9082 42.5377 15.4047 38.2152 15.4047Z" stroke="#333333" stroke-width="2" stroke-linecap="round" stroke-linejoin="round"/>
<path fill-rule="evenodd" clip-rule="evenodd" d="M19.113 28.8912C19.1108 32.6893 22.2113 35.7963 26.003 35.7942C29.7882 35.7898 32.88 32.6958 32.8865 28.9063C32.893 25.1017 29.8033 22.0012 26.0073 21.9968C22.1897 21.9925 19.0827 25.145 19.113 28.8912Z" stroke="#8753F4" stroke-width="2" stroke-linecap="round" stroke-linejoin="round"/>
</svg>
