<svg width="44" height="44" viewBox="0 0 44 44" fill="none" xmlns="http://www.w3.org/2000/svg">
<path fill-rule="evenodd" clip-rule="evenodd" d="M29.8897 5.04224H14.0331C8.50565 5.04224 5.04248 8.95457 5.04248 14.4912V29.4311C5.04248 34.9677 8.49098 38.8801 14.0331 38.8801H29.8878C35.4318 38.8801 38.8803 34.9677 38.8803 29.4311V14.4912C38.8803 8.95457 35.4318 5.04224 29.8897 5.04224Z" stroke="white" stroke-width="2" stroke-linecap="round" stroke-linejoin="round"/>
<path opacity="0.4" fill-rule="evenodd" clip-rule="evenodd" d="M19.6228 16.1067C19.6228 17.9749 18.1066 19.4911 16.2385 19.4911C14.3721 19.4911 12.856 17.9749 12.856 16.1067C12.856 14.2386 14.3721 12.7224 16.2385 12.7224C18.1066 12.7224 19.6228 14.2386 19.6228 16.1067Z" stroke="white" stroke-width="2" stroke-linecap="round" stroke-linejoin="round"/>
<path opacity="0.4" d="M38.8791 27.4093C37.0568 25.8235 35.471 23.915 33.381 22.6555C31.2873 21.396 29.0378 22.1733 27.5858 24.0525C26.1833 25.8693 25.307 28.3131 23.1895 29.459C20.5806 30.8725 19.048 28.5936 16.8718 27.6806C14.4426 26.6631 12.5983 28.4928 11.1793 30.251C9.75847 32.011 8.3193 33.7527 6.87463 35.4943" stroke="white" stroke-width="2" stroke-linecap="round" stroke-linejoin="round"/>
</svg>
