<svg width="18" height="18" viewBox="0 0 18 18" fill="none" xmlns="http://www.w3.org/2000/svg">
<path fill-rule="evenodd" clip-rule="evenodd" d="M12.6 1.79999C13.0971 1.79999 13.5 2.20293 13.5 2.69999V3.59999C14.9912 3.59999 16.2 4.80882 16.2 6.29999V13.5C16.2 14.9912 14.9912 16.2 13.5 16.2H4.50005C3.00888 16.2 1.80005 14.9912 1.80005 13.5V6.29999C1.80005 4.80882 3.00888 3.59999 4.50005 3.59999V2.69999C4.50005 2.20293 4.90299 1.79999 5.40005 1.79999C5.8971 1.79999 6.30005 2.20293 6.30005 2.69999V3.59999H11.7V2.69999C11.7 2.20293 12.103 1.79999 12.6 1.79999ZM14.4 8.99999H3.60005V13.5C3.60005 13.997 4.00299 14.4 4.50005 14.4H13.5C13.9971 14.4 14.4 13.997 14.4 13.5V8.99999ZM13.5 5.39999H4.50005C4.00299 5.39999 3.60005 5.80293 3.60005 6.29999V7.19999H14.4V6.29999C14.4 5.80293 13.9971 5.39999 13.5 5.39999Z" fill="#54556C"/>
</svg>
