<svg width="16" height="16" viewBox="0 0 16 16" fill="none" xmlns="http://www.w3.org/2000/svg">
<path fill-rule="evenodd" clip-rule="evenodd" d="M11.2 1.6001C11.6418 1.6001 12 1.95827 12 2.4001V3.2001C13.3255 3.2001 14.4 4.27461 14.4 5.6001V12.0001C14.4 13.3256 13.3255 14.4001 12 14.4001H3.99998C2.67449 14.4001 1.59998 13.3256 1.59998 12.0001V5.6001C1.59998 4.27461 2.67449 3.2001 3.99998 3.2001V2.4001C3.99998 1.95827 4.35815 1.6001 4.79998 1.6001C5.2418 1.6001 5.59998 1.95827 5.59998 2.4001V3.2001H10.4V2.4001C10.4 1.95827 10.7581 1.6001 11.2 1.6001ZM12.8 8.0001H3.19998V12.0001C3.19998 12.4419 3.55815 12.8001 3.99998 12.8001H12C12.4418 12.8001 12.8 12.4419 12.8 12.0001V8.0001ZM12 4.8001H3.99998C3.55815 4.8001 3.19998 5.15827 3.19998 5.6001V6.4001H12.8V5.6001C12.8 5.15827 12.4418 4.8001 12 4.8001Z" fill="#54556C"/>
</svg>
