<svg width="24" height="15" viewBox="0 0 24 15" fill="none" xmlns="http://www.w3.org/2000/svg">
<path d="M0.0216353 7.12429C0.0735365 3.27126 3.68067 -0.122473 7.62517 0.00511053C9.49361 -0.0714398 11.2842 0.719581 12.7115 1.86784C12.0887 2.55679 11.4659 3.22023 10.7911 3.83263C9.05245 2.65886 6.58714 2.32714 4.84845 3.67953C2.35719 5.36364 2.25339 9.34426 4.64084 11.1559C6.95045 13.2228 11.3361 12.2021 11.9849 9.03805C10.5316 9.01254 9.0784 9.03805 7.62517 8.98702C7.62517 8.14497 7.62517 7.2774 7.62517 6.43534C10.0645 6.43534 12.4779 6.43534 14.9173 6.43534C15.073 8.45117 14.7875 10.5691 13.5419 12.2277C11.6475 14.8559 7.83277 15.6214 4.8744 14.4986C1.86413 13.3759 -0.237871 10.2884 0.0216353 7.12429Z" fill="white"/>
<path d="M19.6403 4.26648C20.3669 4.26648 21.0936 4.26648 21.7942 4.26648C21.7942 4.98095 21.7942 5.69542 21.8202 6.40989C22.5468 6.40989 23.2734 6.40989 24 6.43541C24 7.14988 24 7.86435 24 8.5533C23.2734 8.5533 22.5468 8.5533 21.8202 8.57882C21.8202 9.29329 21.8202 10.0078 21.7942 10.7222C21.0676 10.7222 20.341 10.7222 19.6144 10.7222C19.6144 10.0078 19.6144 9.29329 19.5884 8.57882C18.8618 8.57882 18.1352 8.5533 17.4086 8.5533C17.4086 7.83883 17.4086 7.12436 17.4086 6.43541C18.1352 6.43541 18.8618 6.43541 19.5884 6.40989C19.6403 5.69542 19.6403 4.98095 19.6403 4.26648Z" fill="white"/>
</svg>
