<svg width="130" height="19" viewBox="0 0 130 19" fill="none" xmlns="http://www.w3.org/2000/svg">
<path d="M11.0495 9.055L16.5245 12.85L17.3345 11.665L11.6945 7.87C12.1145 7.015 12.4145 6.07 12.5945 5.08L11.0645 4.81C10.4045 8.395 7.85451 11.395 5.07951 11.395V12.805C7.43451 12.805 9.60951 11.32 11.0495 9.055ZM4.82451 15.55V16.945H17.6195V15.55H4.82451ZM34.8982 9.94H33.0982V4.75H31.6132V17.56H33.0982V11.365H34.8982V9.94ZM22.1032 16.795H29.2282V5.215H22.1032V16.795ZM23.5882 6.595H27.7432V15.415H23.5882V6.595ZM50.3319 12.07H40.5219V9.955H49.9719V8.65H40.5219V6.55H50.1369V5.215H39.0369V13.405H50.3319V12.07ZM38.1819 15.58V16.945H50.9769V15.58H38.1819ZM69.5606 4.75V9.91H67.6406V4.825H66.2756V17.335H67.6406V11.305H69.5606V17.56H70.9256V4.75H69.5606ZM64.1606 6.535H65.2256V5.215H58.6256V6.535H59.6756V15.475H58.5356V16.795H61.6106C63.3956 16.795 64.8806 16.6 65.7056 16.195V14.875C65.2706 15.085 64.7606 15.235 64.1606 15.325V6.535ZM61.0106 15.475V6.535H62.8256V15.445C62.4656 15.475 62.0756 15.475 61.6556 15.475H61.0106ZM85.8644 14.305H87.3494V4.75H85.8644V7.825H83.6744V9.145H85.8644V14.305ZM84.2744 11.95V10.705C83.4494 11.05 81.9794 11.26 80.2394 11.26H77.2844V9.385H82.8044V8.17H77.2844V6.325H83.3444V5.065H75.8144V12.52H80.1194C81.9344 12.52 83.4794 12.295 84.2744 11.95ZM77.9444 16.075V13.705H76.4444V17.395H87.6494V16.075H77.9444ZM107.313 7.195V4.75H105.828V11.83H107.313V8.605H109.113V7.195H107.313ZM100.203 8.965L103.908 11.29L104.643 10.18L100.743 7.78C100.878 7.33 100.968 6.85 100.998 6.355H104.238V5.08H96.0631V6.355H99.5131C99.3181 8.395 98.0131 9.955 95.8981 10.24V11.575C97.8181 11.38 99.3331 10.39 100.203 8.965ZM102.018 12.25C98.9581 12.25 96.5281 12.985 96.5281 14.905C96.5281 16.825 98.9581 17.56 102.018 17.56C105.093 17.56 107.508 16.825 107.508 14.905C107.508 12.985 105.093 12.25 102.018 12.25ZM102.018 16.33C99.8431 16.33 98.1181 15.895 98.1181 14.905C98.1181 13.93 99.8431 13.48 102.018 13.48C104.208 13.48 105.918 13.93 105.918 14.905C105.918 15.895 104.208 16.33 102.018 16.33ZM124.292 4.975H122.822V6.775H114.752V4.975H113.282V11.545H124.292V4.975ZM114.752 10.225V8.095H122.822V10.225H114.752ZM125.192 12.91H112.397V14.29H118.022V17.86H119.552V14.29H125.192V12.91Z" fill="#222222"/>
</svg>
