<svg width="42" height="39" viewBox="0 0 42 39" fill="none" xmlns="http://www.w3.org/2000/svg">
<path d="M39.2119 13.2621H31.8197V13.2359C31.7174 10.6673 31.1035 8.3871 29.9013 6.47379C29.8246 6.34274 29.7223 6.26411 29.6456 6.13306H40.1583V11.4012L42 7.81048V3.66935H27.4714C26.5506 2.88306 25.4762 2.22782 24.2741 1.67742C21.8185 0.550403 18.9537 0 15.6541 0H0V6.13306H12.3544H15.3216C18.391 6.13306 20.7442 6.81452 22.3301 8.15121C23.6858 9.30443 24.4275 10.877 24.6322 12.869L24.7089 13.2883H22.5091V19.4738C22.458 19.5262 22.4068 19.6048 22.3557 19.6573C20.7954 20.9677 18.5189 21.623 15.5262 21.6492V13.1835H0V39H7.05968V27.756H13.0706V38.6069H15.5006V27.756H15.6541C18.1864 27.756 20.4629 27.4153 22.5091 26.7601V38.6069H24.7345V25.8689C24.7856 25.8427 24.8368 25.8165 24.8624 25.7903H24.7856C25.2205 25.5806 25.6041 25.3448 26.0134 25.0827H26.039C26.1669 25.004 26.3203 24.8992 26.4482 24.7944C26.5506 24.7157 26.6273 24.6633 26.7296 24.5847C27.6248 23.9032 28.5457 23.0383 29.3898 21.9113C29.4409 21.8589 29.4921 21.7802 29.5177 21.7278C29.6711 21.5181 29.8246 21.2823 29.9781 21.0726C30.0292 20.994 30.0804 20.8891 30.1315 20.8105C30.5408 20.0766 30.771 19.4214 30.771 19.4214C30.8222 19.2903 30.8733 19.1331 30.9245 19.002C30.9756 18.871 31.0268 18.7399 31.0524 18.5827C31.1803 18.1633 31.3593 17.5343 31.3593 17.5343C31.4616 17.1149 31.5384 16.6956 31.5895 16.25C31.5895 16.25 31.6151 15.8831 31.6663 15.4113H38.1121L39.2119 13.2621Z" fill="#6C06E6"/>
</svg>
