<?xml version="1.0" encoding="utf-8"?>
<!-- Generator: Adobe Illustrator 24.3.0, SVG Export Plug-In . SVG Version: 6.00 Build 0)  -->
<svg version="1.1" id="Layer_1" xmlns="http://www.w3.org/2000/svg" xmlns:xlink="http://www.w3.org/1999/xlink" x="0px" y="0px"
	 viewBox="0 0 150 19" style="enable-background:new 0 0 150 19;" xml:space="preserve">
<path d="M13.2,10.2v1.3H7.6v2.2H6.1v-2.2H0.4v-1.3H13.2z M2.8,15h9.8v1.3H1.3v-3.7h1.5V15z M12.3,8.9h-11V3.8h10.9v5.1H12.3z
	 M10.8,5h-8v2.7h8V5z"/>
<path d="M20.7,9.5l4.1,5.2l-1.2,0.9l-3.4-4.4c-0.9,2.7-2.4,4.2-4.3,4.5v-1.5c2.3-0.4,3.6-4,3.6-8.7h-3.3V4.1h8.1v1.4h-3.2
	C21.1,7,21,8.3,20.7,9.5z M29.2,10.2h-1.8v6.2h-1.5V3.6h1.5v5.2h1.8V10.2z"/>
<path d="M39.5,11.2c-2.5,0-4-1.6-4-3.7s1.5-3.7,4-3.7s4,1.6,4,3.7S41.9,11.2,39.5,11.2z M38,14.9h9.4v1.3H36.5V12H38V14.9z
	 M39.5,9.9C41,9.9,42,9,42,7.4c0-1.5-1-2.5-2.5-2.5S37,5.9,37,7.4C37,9,38,9.9,39.5,9.9z M48.9,6.7v1.4h-1.8v5h-1.5V3.6h1.5v3
	L48.9,6.7L48.9,6.7z"/>
<path d="M54.4,14.4c1.1,0,2.2-0.2,3-0.5v1.3c-0.8,0.3-2,0.5-3.1,0.5h-2.9V4.1h1.5v10.3H54.4z M63.2,3.6v12.8h-1.4v-6.3h-2.1v6h-1.4
	V3.7h1.4v5.1h2.1V3.6H63.2z"/>
<path d="M75.5,8.8l4,6.1l-1.2,0.8l-3.2-5c-0.9,3-2.4,4.8-4.4,5v-1.5c2.5-0.4,3.7-4.8,3.7-10.2h1.5C75.9,5.8,75.8,7.4,75.5,8.8z
	 M82.6,3.6v12.8h-1.5V9.7h-3.3V8.3h3.3V3.6H82.6z"/>
<path d="M92.5,4H94v11.7h-7.3V4h1.5v4.4h4.3V4z M92.5,14.3V9.8h-4.3v4.5H92.5z M97.9,3.6v12.8h-1.5V3.6H97.9z"/>
<path d="M114.2,14.4v1.4h-12.8v-1.4H114.2z M101.7,11.7v-1.4c2.8,0,5.3-3,6-6.6l1.5,0.3c-0.2,1-0.5,1.9-0.9,2.8l5.6,3.8l-0.8,1.2
	l-5.5-3.9C106.2,10.2,104,11.7,101.7,11.7z"/>
<path d="M121.1,9.9V8.6c2.4-0.4,3.8-2.5,3.8-4.8l1.5,0.1c0,0.9-0.2,1.7-0.5,2.4l3.9,2.4l-0.8,1l-3.7-2.4
	C124.4,8.7,122.9,9.7,121.1,9.9z M133.4,15.1v1.2h-11.2V13h9.4v-1.1h-9.5v-1.2H133V14h-9.4v1.1H133.4z M131.6,6.8h-3.1V5.4h3.1V3.6
	h1.5V10h-1.5V6.8z"/>
<path d="M136.7,10.5V9.1c2.1-0.3,3.4-1.8,3.6-3.9h-3.4V4h8.2v1.3h-3.2c0,0.5-0.1,1-0.3,1.5l3.9,2.5l-0.7,1.1L141,8
	C140.1,9.3,138.6,10.3,136.7,10.5z M148.6,13.8c0,1.9-2.4,2.6-5.5,2.6s-5.5-0.7-5.5-2.6s2.4-2.6,5.5-2.6
	C146.2,11.3,148.6,12,148.6,13.8z M147.1,13.8c0-0.9-1.8-1.4-4-1.4s-4,0.4-4,1.4s1.8,1.4,4,1.4S147.1,14.8,147.1,13.8z M147,6V3.6
	h1.5v7.2H147V7.3h-2.5V6H147z"/>
</svg>
