<svg width="32" height="32" viewBox="0 0 32 32" fill="none" xmlns="http://www.w3.org/2000/svg">
<path d="M16 6L16.5017 5.44253C16.2165 5.18582 15.7835 5.18582 15.4983 5.44253L16 6ZM26 15V15.75C26.3105 15.75 26.589 15.5586 26.7002 15.2687C26.8115 14.9788 26.7325 14.6503 26.5017 14.4425L26 15ZM6 15L5.49828 14.4425C5.26745 14.6503 5.18853 14.9788 5.29978 15.2687C5.41104 15.5586 5.68946 15.75 6 15.75V15ZM8 15H8.75C8.75 14.5858 8.41421 14.25 8 14.25V15ZM8 26H7.25C7.25 26.4142 7.58579 26.75 8 26.75V26ZM24 26V26.75C24.4142 26.75 24.75 26.4142 24.75 26H24ZM24 15V14.25C23.5858 14.25 23.25 14.5858 23.25 15H24ZM15.4983 6.55747L25.4983 15.5575L26.5017 14.4425L16.5017 5.44253L15.4983 6.55747ZM6.50172 15.5575L16.5017 6.55747L15.4983 5.44253L5.49828 14.4425L6.50172 15.5575ZM8 14.25H6V15.75H8V14.25ZM8.75 26V15H7.25V26H8.75ZM24 25.25H8V26.75H24V25.25ZM23.25 15V26H24.75V15H23.25ZM26 14.25H24V15.75H26V14.25Z" fill="#222222"/>
<path d="M13 21C13 19.3431 14.3431 18 16 18V18C17.6569 18 19 19.3431 19 21V26H13V21Z" stroke="#222222" stroke-width="1.5" stroke-linecap="round" stroke-linejoin="round"/>
</svg>
