<svg width="52" height="52" viewBox="0 0 52 52" fill="none" xmlns="http://www.w3.org/2000/svg">
<path fill-rule="evenodd" clip-rule="evenodd" d="M19.2728 8.66675H12.5042C10.1454 8.66675 8.66663 10.3368 8.66663 12.7003V19.0777C8.66663 21.4411 10.1384 23.1112 12.5042 23.1112H19.272C21.6385 23.1112 23.1111 21.4411 23.1111 19.0777V12.7003C23.1111 10.3368 21.6385 8.66675 19.2728 8.66675Z" stroke="#333333" stroke-width="2" stroke-linecap="round" stroke-linejoin="round"/>
<path fill-rule="evenodd" clip-rule="evenodd" d="M17.2424 33.2224H14.535C13.5915 33.2224 13 33.8904 13 34.8358V37.3868C13 38.3322 13.5887 39.0002 14.535 39.0002H17.2421C18.1888 39.0002 18.7778 38.3322 18.7778 37.3868V34.8358C18.7778 33.8904 18.1888 33.2224 17.2424 33.2224Z" fill="#8753F4"/>
<path fill-rule="evenodd" clip-rule="evenodd" d="M37.4646 13H34.7572C33.8137 13 33.2222 13.668 33.2222 14.6134V17.1644C33.2222 18.1097 33.8109 18.7778 34.7572 18.7778H37.4643C38.4109 18.7778 39 18.1097 39 17.1644V14.6134C39 13.668 38.4109 13 37.4646 13Z" fill="#8753F4"/>
<path fill-rule="evenodd" clip-rule="evenodd" d="M39.4949 8.66675H32.7263C30.3676 8.66675 28.8888 10.3368 28.8888 12.7003V19.0777C28.8888 21.4411 30.3606 23.1112 32.7263 23.1112H39.4941C41.8607 23.1112 43.3332 21.4411 43.3332 19.0777V12.7003C43.3332 10.3368 41.8607 8.66675 39.4949 8.66675Z" stroke="#333333" stroke-width="2" stroke-linecap="round" stroke-linejoin="round"/>
<path fill-rule="evenodd" clip-rule="evenodd" d="M19.2728 28.8889H12.5042C10.1454 28.8889 8.66663 30.559 8.66663 32.9224V39.2998C8.66663 41.6633 10.1384 43.3333 12.5042 43.3333H19.272C21.6385 43.3333 23.1111 41.6633 23.1111 39.2998V32.9224C23.1111 30.559 21.6385 28.8889 19.2728 28.8889Z" stroke="#333333" stroke-width="2" stroke-linecap="round" stroke-linejoin="round"/>
<rect x="28.8888" y="28.8889" width="4.81482" height="4.81481" fill="#8753F4"/>
<rect x="33.7036" y="33.7036" width="4.81482" height="4.81482" fill="#8753F4"/>
<rect x="38.5184" y="28.8889" width="4.81481" height="4.81481" fill="#8753F4"/>
<rect x="38.5184" y="33.7036" width="4.81481" height="4.81482" fill="#8753F4"/>
<rect x="38.5184" y="38.5186" width="4.81481" height="4.81481" fill="#8753F4"/>
<rect x="28.8888" y="38.5186" width="4.81482" height="4.81481" fill="#8753F4"/>
</svg>
