<svg width="52" height="52" viewBox="0 0 52 52" fill="none" xmlns="http://www.w3.org/2000/svg">
<path fill-rule="evenodd" clip-rule="evenodd" d="M11.2147 23.686C11.2147 23.1338 10.767 22.686 10.2147 22.686C9.66244 22.686 9.21472 23.1338 9.21472 23.686C9.21472 32.7635 16.3094 40.1817 25.2571 40.6988V45.8183C25.2571 46.3706 25.7048 46.8183 26.2571 46.8183C26.8094 46.8183 27.2571 46.3706 27.2571 45.8183V40.6987C36.2041 40.1808 43.2979 32.763 43.2979 23.686C43.2979 23.1338 42.8502 22.686 42.2979 22.686C41.7456 22.686 41.2979 23.1338 41.2979 23.686C41.2979 31.9944 34.5647 38.7276 26.2563 38.7276C17.948 38.7276 11.2147 31.9944 11.2147 23.686Z" fill="#8753F4"/>
<path fill-rule="evenodd" clip-rule="evenodd" d="M26.5302 31.5995H25.9833C21.6046 31.5995 18.0533 28.0503 18.0533 23.6695V13.8101C18.0533 9.4314 21.6046 5.88013 25.9833 5.88013H26.5302C30.9089 5.88013 34.4602 9.4314 34.4602 13.8101V23.6695C34.4602 28.0503 30.9089 31.5995 26.5302 31.5995Z" stroke="#333333" stroke-width="2" stroke-linecap="round" stroke-linejoin="round"/>
</svg>
