<svg width="16" height="16" viewBox="0 0 16 16" fill="none" xmlns="http://www.w3.org/2000/svg">
<path fill-rule="evenodd" clip-rule="evenodd" d="M12.0001 8.79998C13.3256 8.79998 14.4001 9.87449 14.4001 11.2V12C14.4001 13.3255 13.3256 14.4 12.0001 14.4H4.0001C2.67461 14.4 1.6001 13.3255 1.6001 12V11.2C1.6001 9.87449 2.67461 8.79998 4.0001 8.79998H12.0001ZM12.0001 10.4H4.0001C3.55827 10.4 3.2001 10.7581 3.2001 11.2V12C3.2001 12.4418 3.55827 12.8 4.0001 12.8H12.0001C12.4419 12.8 12.8001 12.4418 12.8001 12V11.2C12.8001 10.7581 12.4419 10.4 12.0001 10.4ZM12.0001 1.59998C13.3256 1.59998 14.4001 2.67449 14.4001 3.99998V4.79998C14.4001 6.12546 13.3256 7.19998 12.0001 7.19998H4.0001C2.67461 7.19998 1.6001 6.12546 1.6001 4.79998V3.99998C1.6001 2.67449 2.67461 1.59998 4.0001 1.59998H12.0001ZM12.0001 3.19998H4.0001C3.55827 3.19998 3.2001 3.55815 3.2001 3.99998V4.79998C3.2001 5.2418 3.55827 5.59998 4.0001 5.59998H12.0001C12.4419 5.59998 12.8001 5.2418 12.8001 4.79998V3.99998C12.8001 3.55815 12.4419 3.19998 12.0001 3.19998Z" fill="white"/>
</svg>
