<svg width="16" height="16" viewBox="0 0 16 16" fill="none" xmlns="http://www.w3.org/2000/svg">
<path fill-rule="evenodd" clip-rule="evenodd" d="M5 13C5 13.5523 4.55229 14 4 14C3.44771 14 3 13.5523 3 13V5C3 4.44772 3.44771 4 4 4C4.55229 4 5 4.44772 5 5L5 13ZM9 13C9 13.5523 8.55228 14 8 14C7.44772 14 7 13.5523 7 13L7 9C7 8.44772 7.44772 8 8 8C8.55228 8 9 8.44772 9 9V13ZM13 13C13 13.5523 12.5523 14 12 14C11.4477 14 11 13.5523 11 13V3C11 2.44772 11.4477 2 12 2C12.5523 2 13 2.44772 13 3V13Z" fill="#999999"/>
</svg>
