<svg width="16" height="16" viewBox="0 0 16 16" fill="none" xmlns="http://www.w3.org/2000/svg">
<path fill-rule="evenodd" clip-rule="evenodd" d="M11.2001 1.59998C11.6419 1.59998 12.0001 1.95815 12.0001 2.39998V3.19998C13.3256 3.19998 14.4001 4.27449 14.4001 5.59998V12C14.4001 13.3255 13.3256 14.4 12.0001 14.4H4.0001C2.67461 14.4 1.6001 13.3255 1.6001 12V5.59998C1.6001 4.27449 2.67461 3.19998 4.0001 3.19998V2.39998C4.0001 1.95815 4.35827 1.59998 4.8001 1.59998C5.24193 1.59998 5.6001 1.95815 5.6001 2.39998V3.19998H10.4001V2.39998C10.4001 1.95815 10.7583 1.59998 11.2001 1.59998ZM12.8001 7.99998H3.2001V12C3.2001 12.4418 3.55827 12.8 4.0001 12.8H12.0001C12.4419 12.8 12.8001 12.4418 12.8001 12V7.99998ZM12.0001 4.79998H4.0001C3.55827 4.79998 3.2001 5.15815 3.2001 5.59998V6.39998H12.8001V5.59998C12.8001 5.15815 12.4419 4.79998 12.0001 4.79998Z" fill="#999999"/>
</svg>
