<svg width="32" height="32" viewBox="0 0 32 32" fill="none" xmlns="http://www.w3.org/2000/svg">
<path fill-rule="evenodd" clip-rule="evenodd" d="M9.33329 21.3334H22.6666C26.3485 21.3334 29.3333 24.3182 29.3333 28.0001C29.3333 28.7365 28.7363 29.3334 28 29.3334C27.3162 29.3334 26.7526 28.8187 26.6756 28.1556L26.6598 27.7651C26.5427 25.7431 24.9236 24.124 22.9017 24.0069L22.6666 24.0001H9.33329C7.12415 24.0001 5.33329 25.7909 5.33329 28.0001C5.33329 28.7365 4.73634 29.3334 3.99996 29.3334C3.26358 29.3334 2.66663 28.7365 2.66663 28.0001C2.66663 24.4151 5.49637 21.491 9.04411 21.3396L9.33329 21.3334H22.6666H9.33329ZM16 2.66675C20.4182 2.66675 24 6.24847 24 10.6667C24 15.085 20.4182 18.6667 16 18.6667C11.5817 18.6667 7.99996 15.085 7.99996 10.6667C7.99996 6.24847 11.5817 2.66675 16 2.66675ZM16 5.33341C13.0544 5.33341 10.6666 7.72123 10.6666 10.6667C10.6666 13.6123 13.0544 16.0001 16 16.0001C18.9455 16.0001 21.3333 13.6123 21.3333 10.6667C21.3333 7.72123 18.9455 5.33341 16 5.33341Z" fill="#2D3343"/>
</svg>
